<?xml version="1.0" encoding="UTF-8"?>
<svg fill="#A4A4A4" data-name="Layer 2" xmlns="http://www.w3.org/2000/svg" viewBox="0 0 291.23 340.11">
    <path class="cls-2" d="m173.56,129.03c-.09,4.65,2.53,16.09-7.59,9.79-23.38-8.16-39.12-34.84-18-66.08-29.46,18.75-29.49,67.07-9.22,86.68-.8-2.79-1.21-8.8-.23-12.14,15.05,17.98,46.75,51.75,34.38,89.96,17.05-32.44,15.56-66.07-13.09-92.08,27.65-.51,29.46,26.62,30.36,33.42,2.95-22.11-11.09-36.99-16.6-49.55m52.81-41.97c.36-16.19-12.98-25.43-13.18-43.62,9.16-11.73,12.04-31.09,4.81-43.44-2.95,11.79-20.58,20.59-27.29,26.35,3.87,2.35,7.39,6.74,8.58,9.33-9.95-6.03-19.72-9.77-28.9-10.77-2.66-8.39-16.2-17.07-18.31-24.82.48,11.93,20.11,32.4,10.6,51.56,2.26-1.95,8.54-6.8,8.86-10.52,18.56,18.68-.36,27.47,20.36,46.1-1.93-6.21-3.73-12.15,1.1-21.28-4.24,14.47,10.54,24.75,11.41,39.69,2.9-13.8-2.77-13.71,1.15-25.85,2.44,13.6,8.3,29.45,12.26,42.93,4.41,15.05,5.48,28.77,7.11,37.28-4.58-3.85-13.26-6.58-16.6-.32-2.83,5.32-1.16,11.81,1.13,15.4-.9-4.17-.81-8.18,1.41-11.38,4.01-5.88,11.99.48,11,5.35-5.01-9.88-9.89-.96-8.54,5.11,1.25,5.6,8.11,8.22,12.57,10.33-3.16,2.78-6.75,4.29-10.47,5.31-8.78-4.29-13.63-6.19-16.54-8.29,3.06,5.71,5.43,6.32,8.22,8.52-3.95-.13-5.7-.19-9.65-.32,7.08,3.67,11.35,4,15.93,3.53,2.5-.2,17.55-6.34,21.37-11.74.97-.95,4.24-11.32,5.11-13.46,0,0,4.33-7.35-1.72-14.13-3.45-13.58-13.52-42.26-11.77-66.84Zm-52.57,3.78c-1.37.56-2.34,1.91-2.34,3.49,0,1.99,1.55,3.62,3.5,3.75-1.14.12-2.74-.29-4.53-2.07,2.24,4.38,6.7,4.31,8.89,4.08,1.6,2.38,1.76,4.69,7.45,14.38-4.27-14.54-3.92-20.14-9-28.05-5.29-.69-9.91-2.38-15.94-4.83,1.94,2.8,4.84,4.42,6.68,5.38-.3,1.57-.64,3.07.96,6.52.18-2.12.49-4.1,1.92-5.01.78.4,1.64,1.25,2.42,2.36Zm-28.53-70.31c.25,7.2,2.2,18.95,6.31,23.58-30.47,1.72-62.43,21.04-77.52,59.1,6.15-12.87,15.18-21.04,30.02-29.47-21.25,21.04-46.56,62.02-9.72,108.52-12.74-20.81-11.46-44.92-7.37-53.74-3.22,25.5,12.36,39.01,29.15,55.89,22.69,22.79,54.68,57.86,26.23,94.51,21.82-36.88-20-63.17-38.66-80.8,4.79,4.93,12.24,17.07,7.2,30.34,2.14-23.56-28.59-26.19-43.27-43.23-8.74-10.14-13.58-22.86-10.48-41.35-12.71,17.88,1.37,29.82-3.9,43.69,1.35-21.05-23.53-29.07-6.45-57.48,10.68-17.77,3.8-29.64,21.37-43.64-22.04,12.08-15.49,37.7-33.6,43.68,20.9-21.2-2.4-47.21,36.82-65.65-3.8-1.2-20.5.16-27.18,14.26,4.4-19.05,20.18-25.57,31.02-28,11.73-2.63,24.19-3.51,32.85-16.16-23.48,19.46-37.83,3.17-50.01,19.64,4.9-15.28,18.76-13.78,28.67-16.85,14.53-3.74,17.62-19.11,44.55-12.54-1.72-3.68-11.41-5.02-23.47-3.66,7.23-3.02,23.88-8.12,37.42-.63Z"/>
</svg>